<mxfile host="65bd71144e">
    <diagram id="YlYPkA110Xx78wUKDYwy" name="ページ1">
        <mxGraphModel dx="547" dy="488" grid="1" gridSize="10" guides="1" tooltips="1" connect="1" arrows="1" fold="1" page="1" pageScale="1" pageWidth="827" pageHeight="1169" math="0" shadow="0">
            <root>
                <mxCell id="0"/>
                <mxCell id="1" parent="0"/>
                <mxCell id="2" value="" style="rounded=0;whiteSpace=wrap;html=1;fillColor=none;" vertex="1" parent="1">
                    <mxGeometry x="40" y="70" width="370" height="250" as="geometry"/>
                </mxCell>
                <mxCell id="3" value="リバーシで学ぶアプリケーション設計入門" style="rounded=0;whiteSpace=wrap;html=1;fillColor=none;" vertex="1" parent="1">
                    <mxGeometry x="40" y="70" width="370" height="50" as="geometry"/>
                </mxCell>
                <mxCell id="4" value="対戦する" style="rounded=1;whiteSpace=wrap;html=1;fillColor=none;" vertex="1" parent="1">
                    <mxGeometry x="170" y="150" width="100" height="40" as="geometry"/>
                </mxCell>
                <mxCell id="5" value="過去の対戦結果" style="rounded=0;whiteSpace=wrap;html=1;fillColor=none;" vertex="1" parent="1">
                    <mxGeometry x="90" y="200" width="280" height="100" as="geometry"/>
                </mxCell>
                <mxCell id="6" value="" style="rounded=0;whiteSpace=wrap;html=1;fillColor=none;" vertex="1" parent="1">
                    <mxGeometry x="440" y="70" width="370" height="250" as="geometry"/>
                </mxCell>
                <mxCell id="7" value="リバーシで学ぶアプリケーション設計入門" style="rounded=0;whiteSpace=wrap;html=1;fillColor=none;" vertex="1" parent="1">
                    <mxGeometry x="440" y="70" width="370" height="50" as="geometry"/>
                </mxCell>
                <mxCell id="8" value="自分の番はスキップです" style="rounded=1;whiteSpace=wrap;html=1;fillColor=none;" vertex="1" parent="1">
                    <mxGeometry x="540" y="130" width="150" height="30" as="geometry"/>
                </mxCell>
                <mxCell id="9" value="盤面" style="rounded=0;whiteSpace=wrap;html=1;fillColor=none;" vertex="1" parent="1">
                    <mxGeometry x="512.5" y="170" width="205" height="110" as="geometry"/>
                </mxCell>
                <mxCell id="10" value="次は黒の番です" style="rounded=0;whiteSpace=wrap;html=1;fillColor=none;strokeWidth=0;strokeColor=none;" vertex="1" parent="1">
                    <mxGeometry x="521.25" y="280" width="187.5" height="30" as="geometry"/>
                </mxCell>
            </root>
        </mxGraphModel>
    </diagram>
</mxfile>